<?xml version="1.0"?>
<svg xmlns="http://www.w3.org/2000/svg" id="Line" viewBox="0 0 64 64"><path d="M58.53,27.25l-5-1.31a21.62,21.62,0,0,0-2-4.86l2.61-4.48a2,2,0,0,0-.31-2.39l-4-4a2,2,0,0,0-2.39-.31L43,12.49a21.07,21.07,0,0,0-4.88-2l-1.32-5A2,2,0,0,0,34.85,4h-5.7a2,2,0,0,0-1.9,1.47l-1.31,5a21.62,21.62,0,0,0-4.86,2L16.6,9.88a2,2,0,0,0-2.39.31l-4,4a2,2,0,0,0-.31,2.39l2.61,4.45a21.74,21.74,0,0,0-2,4.88l-5,1.32A2,2,0,0,0,4,29.15v5.7a2,2,0,0,0,1.47,1.9l5,1.31a21.82,21.82,0,0,0,2,4.86L9.88,47.4a2,2,0,0,0,.31,2.39l4,4a2,2,0,0,0,2.39.31l4.45-2.61a21.07,21.07,0,0,0,4.88,2l1.32,5A2,2,0,0,0,29.15,60h5.7a2,2,0,0,0,1.9-1.47l1.31-5a21.62,21.62,0,0,0,4.86-2l4.48,2.61a2,2,0,0,0,2.39-.31l4-4a2,2,0,0,0,.31-2.39L51.51,43a21.07,21.07,0,0,0,2-4.88l5-1.32A2,2,0,0,0,60,34.85v-5.7A2,2,0,0,0,58.53,27.25ZM58,34.83l-5,1.31a2,2,0,0,0-1.39,1.38A20.82,20.82,0,0,1,49.77,42a2,2,0,0,0,0,2l2.62,4.45-4,4-4.49-2.61a2,2,0,0,0-2,0,20.82,20.82,0,0,1-4.45,1.85A2,2,0,0,0,36.14,53l-1.29,5-5.67,0-1.32-5a2,2,0,0,0-1.38-1.39A20.82,20.82,0,0,1,22,49.77a1.94,1.94,0,0,0-2,0L15.63,52.4l-4-4,2.61-4.48a2,2,0,0,0,0-2,20.82,20.82,0,0,1-1.85-4.45A1.94,1.94,0,0,0,11,36.14L6,34.85l0-5.67,5-1.32a1.94,1.94,0,0,0,1.39-1.38A20.82,20.82,0,0,1,14.23,22a2,2,0,0,0,0-2L11.6,15.63l4-4,4.49,2.61a2,2,0,0,0,2,0,20.82,20.82,0,0,1,4.45-1.85A2,2,0,0,0,27.86,11l1.29-5,5.67,0,1.32,5a2,2,0,0,0,1.38,1.39A20.82,20.82,0,0,1,42,14.23a2,2,0,0,0,2,0l4.45-2.62,4,4-2.61,4.49a2,2,0,0,0,0,2,20.82,20.82,0,0,1,1.85,4.45A2,2,0,0,0,53,27.86l5,1.29Z"/><path d="M39.49,19.58a1,1,0,1,0,1-1.7A16.33,16.33,0,0,0,32,15.5a16.51,16.51,0,0,0-14.14,25,1,1,0,0,0,.86.48,1.06,1.06,0,0,0,.51-.14,1,1,0,0,0,.34-1.38,14.51,14.51,0,0,1,19.92-19.9Z"/><path d="M44.84,23.27a1,1,0,0,0-.35,1.37A14.49,14.49,0,0,1,24.63,44.48a1,1,0,1,0-1,1.72,16.49,16.49,0,0,0,22.6-22.58A1,1,0,0,0,44.84,23.27Z"/><path d="M28.66,38.29a1,1,0,0,0,.73.31,1,1,0,0,0,.73-.31L40.79,27a1,1,0,0,0-1.46-1.38L29.39,36.15l-4.6-4.89a1,1,0,0,0-1.41-.05,1,1,0,0,0-.05,1.42Z"/></svg>
