<svg id="Layer_1" viewBox="0 0 1000 1000" xmlns="http://www.w3.org/2000/svg" data-name="Layer 1"><path d="m599.36 869.2h-198.72a41.51 41.51 0 0 1 -41.46-41.46v-7.88a41.5 41.5 0 0 1 41.46-41.45h198.72a41.5 41.5 0 0 1 41.46 41.45v7.88a41.51 41.51 0 0 1 -41.46 41.46zm-198.72-64.79a15.47 15.47 0 0 0 -15.46 15.45v7.88a15.48 15.48 0 0 0 15.46 15.46h198.72a15.48 15.48 0 0 0 15.46-15.46v-7.88a15.47 15.47 0 0 0 -15.46-15.45z"/><path d="m565.56 938h-131.12a37.86 37.86 0 0 1 -37.82-37.82v-44a13 13 0 0 1 13-13h180.76a13 13 0 0 1 13 13v44a37.86 37.86 0 0 1 -37.82 37.82zm-142.94-68.8v31a11.83 11.83 0 0 0 11.82 11.8h131.12a11.83 11.83 0 0 0 11.82-11.82v-31z"/><path d="m574.64 544.59a67.39 67.39 0 0 1 -27.64-6.31 71.59 71.59 0 0 1 -40.1-48.45c-4.85-20.38-1.22-38.56 10.79-54 15.86-20.45 46-35.06 89.48-43.44a379.54 379.54 0 0 1 58.83-6.59 13 13 0 0 1 13 15.65 379.68 379.68 0 0 1 -17.5 56.55c-16.37 41.18-36.36 68-59.4 79.78a59.8 59.8 0 0 1 -27.46 6.81zm74.72-131.85c-34.13 2.88-90.9 12.88-111.14 39-7 9.07-9 19.56-6 32.07a45.46 45.46 0 0 0 25.45 30.75c11.73 5.26 22.4 5.28 32.64.07 29.4-15.01 49.84-68.9 59.05-101.89z"/><path d="m419.67 546.8a59.38 59.38 0 0 1 -30.67-8.65c-22.25-13.19-40.5-41.25-54.22-83.38a380.21 380.21 0 0 1 -13.81-57.54 13 13 0 0 1 13.92-14.8 379.31 379.31 0 0 1 58.28 10.26c42.89 11.12 72 27.62 86.54 49 11 16.21 13.48 34.59 7.35 54.61a71.64 71.64 0 0 1 -43.1 45.82 69.07 69.07 0 0 1 -24.29 4.68zm-69.95-136.45c7.1 33.51 24.08 88.6 52.52 105.45 9.88 5.85 20.53 6.5 32.57 2a45.46 45.46 0 0 0 27.35-29.08c3.76-12.29 2.45-22.89-4-32.4-18.6-27.4-74.58-40.96-108.44-45.97z"/><path d="m505.26 625c-.35 0-.71 0-1.07 0a13 13 0 0 1 -11.9-14c6.31-77.09-30-83.71-31.56-83.95h.26l3-25.83c1.79.2 17.9 2.47 32.41 18.63 17.92 20 25.27 51.33 21.84 93.24a13 13 0 0 1 -12.98 11.91z"/><path d="m500.75 567.4a13 13 0 0 1 -12.38-17c10-31.12 33.45-48.13 36.1-50a13 13 0 1 1 14.71 21.44c-1.66 1.21-18.92 14.27-26 36.48a13 13 0 0 1 -12.43 9.08z"/><path d="m404.56 804.41a13 13 0 0 1 -12.95-12c-8.48-114.68-78.19-187.68-78.89-188.41-.21-.21-.4-.43-.59-.65a246.21 246.21 0 0 1 184-405.29 241.39 241.39 0 0 1 96.3 18.33 250.42 250.42 0 0 1 133.46 130.7 241.44 241.44 0 0 1 20.3 95.83 246.23 246.23 0 0 1 -58.31 160.43c-.19.23-.39.44-.59.65s-17.89 18.68-36.4 51.14c-17 29.74-38.09 77.69-42.5 137.22a13 13 0 1 1 -25.93-1.92c4.8-64.77 27.83-116.77 46.31-149 18.87-32.91 36.76-52.28 39.52-55.2a220.24 220.24 0 0 0 51.9-143.2c-.31-58.61-24-113.88-66.56-155.62s-98.45-64.27-157.09-63.36c-119.54 1.85-216.73 100.62-216.73 220.19a220.28 220.28 0 0 0 51.9 142c2.76 2.92 20.65 22.29 39.53 55.21 18.48 32.22 41.51 84.22 46.3 149a13 13 0 0 1 -12 13.92c-.33.01-.66.03-.98.03z"/><path d="m491.72 142.91a13 13 0 0 1 -13-13v-54.91a13 13 0 0 1 26 0v54.91a13 13 0 0 1 -13 13z"/><path d="m334.93 189.36a13 13 0 0 1 -11.27-6.5l-27.46-47.55a13 13 0 1 1 22.52-13l27.45 47.55a13 13 0 0 1 -11.24 19.5z"/><path d="m222.33 308a13 13 0 0 1 -6.49-1.74l-47.55-27.46a13 13 0 1 1 13-22.52l47.55 27.45a13 13 0 0 1 -6.51 24.27z"/><path d="m184.17 467h-54.91a13 13 0 1 1 0-26h54.91a13 13 0 0 1 0 26z"/><path d="m183.08 651.28a13 13 0 0 1 -6.51-24.28l47.55-27.45a13 13 0 1 1 13 22.51l-47.55 27.46a13 13 0 0 1 -6.49 1.76z"/><path d="m825.2 636.94a13 13 0 0 1 -6.49-1.74l-47.55-27.45a13 13 0 0 1 13-22.52l47.55 27.45a13 13 0 0 1 -6.51 24.26z"/><path d="m870.74 450.46h-54.91a13 13 0 0 1 0-26h54.91a13 13 0 0 1 0 26z"/><path d="m769.39 293.66a13 13 0 0 1 -6.51-24.26l47.55-27.46a13 13 0 0 1 13 22.52l-47.55 27.45a12.87 12.87 0 0 1 -6.49 1.75z"/><path d="m650.74 181.08a13 13 0 0 1 -11.25-19.5l27.45-47.58a13 13 0 0 1 22.52 13l-27.46 47.58a13 13 0 0 1 -11.26 6.5z"/></svg>