<svg clip-rule="evenodd" fill-rule="evenodd" height="512" image-rendering="optimizeQuality" shape-rendering="geometricPrecision" text-rendering="geometricPrecision" viewBox="0 0 512 512" width="512" xmlns="http://www.w3.org/2000/svg"><g id="Layer_x0020_1"><g id="_427688328"><g><g><g><path d="m218 425c-1 0-2 0-3-1-51-25-79-53-86-88-7-31 3-62 14-95 8-26 16-51 17-78 0-3 2-6 5-7s6 1 8 3c10 18 16 34 19 46 22-37 30-111 30-112 0-2 2-4 4-5s5-1 7 0c46 30 65 64 73 87 2 6 3 11 4 15 0-4 1-9 1-15 0-19-2-38-2-38 0-3 1-6 3-7 3-2 6-1 8 1 52 43 78 100 72 156-7 56-44 104-105 136-3 2-6 1-8-1-3-3-3-6-1-9 22-35 25-68 11-99-6-12-13-21-19-28-8 56-39 78-40 79-3 3-7 2-9 0-3-3-3-7-1-10 6-6 6-20 3-33-31 53 0 91 0 91 2 3 2 7 0 9-1 2-3 3-5 3zm-47-238c-3 20-9 39-15 58-10 31-19 61-14 88 6 26 25 48 59 68-1-4-3-9-4-14-4-20-2-51 24-86 2-2 5-3 7-3 3 1 5 3 6 5 0 3 4 16 5 31 8-13 17-34 19-62 0-3 2-5 4-6s5-1 7 1c1 0 21 15 33 41 10 21 16 52 0 91 44-29 71-69 76-113 5-47-14-94-53-133v22c0 31-6 47-17 52-2 1-5 0-7-1-2-2-3-4-3-7 0 0 3-17-5-40-9-27-29-52-58-72-4 26-16 93-42 119-2 2-5 3-7 2-3-1-5-3-5-6 0 0-2-15-10-35z"/></g><g><path d="m256 512c-69 0-133-27-181-75s-75-112-75-181c0-68 27-133 75-181s113-75 181-75 132 27 181 75c48 49 75 113 75 181s-27 133-75 181-113 75-181 75zm0-498c-133 0-242 109-242 242s109 242 242 242 242-109 242-242-109-242-242-242z"/></g><g><path d="m256 470c-118 0-214-96-214-214s96-214 214-214 214 96 214 214-96 214-214 214zm0-414c-110 0-200 90-200 200s90 200 200 200 200-90 200-200-90-200-200-200z"/></g></g><g><path d="m444 512h-376c-4 0-7-3-7-7s3-7 7-7h376c4 0 7 3 7 7s-3 7-7 7z"/></g></g></g></g></svg>