<svg clip-rule="evenodd" fill-rule="evenodd" height="512" image-rendering="optimizeQuality" shape-rendering="geometricPrecision" text-rendering="geometricPrecision" viewBox="0 0 1.70666 1.70666" width="512" xmlns="http://www.w3.org/2000/svg"><g id="Layer_x0020_1"><path d="m.909705.652571c.33322-.0568898.217035-.265898.108669-.21072-.0436929.022248-.0871339.0846024-.108669.21072zm.246339-.0905433c-.0287598.0564764-.107433.111894-.265835.133902-.0157717.0035-.0257913-.0095748-.023752-.0246811.0595118-.432984.372831-.272693.289587-.10922z" fill-rule="nonzero"/><path d="m.938886 1.11665c-.0355118 0-.0688189-.013748-.0937756-.0387047l-.360819-.360831c-.0516457-.0516457-.0516457-.13587 0-.187516l.490839-.490854c.0516535-.0516457.135894-.0516417.187547 0l.360827.360827c.0517047.0516929.0517047.135827 0 .187535l-.49085.490854c-.0249646.024937-.0582559.038689-.0937677.038689zm.130008-1.07663c-.0248189 0-.0480827.00958661-.0654843.0269843l-.490835.490854c-.0360079.0360079-.0360039.0949606 0 .130965l.360815.360819c.0360276.0360236.0949646.0360315.13098 0l.490854-.490839c.0361063-.0361102.0361063-.0948701 0-.13098l-.360827-.360827c-.0174213-.0173898-.0406614-.0269764-.0655039-.0269764z"/><path d="m.664248 1.13724c-.0194173 0-.037626-.00750787-.0512913-.0211614l-.166795-.166811c-.0282756-.0282953-.0282756-.0743031 0-.102579l.0980118-.0979961c.00782283-.0078189.0204724-.0078189.0282795 0l.241098.241087c.00782283.00782283.00782283.0204882 0 .0282913l-.0980118.0980118c-.0136732.0136496-.0318937.0211575-.0512913.0211575zm-.105953-.346134-.0838701.0838583c-.0126811.012685-.0126811.0333189 0 .0460157l.166795.166795c.0122087.0122087.0337874.0122087.0460118 0l.0838583-.0838622-.212795-.212807z"/><path d="m.264433 1.31781c-.0150748 0-.0250669-.0165984-.0173307-.03l.204437-.35411c.0131575-.022815.0477874-.00280315.0346339.02l-.167106.289461.289457-.167114c.022815-.0131654.0427795.0214724.02.0346339l-.354091.204445c-.00312598.00180709-.00657087.00268504-.01.00268504z"/><path d="m1.08164 1.02067c-.00511024 0-.0102323-.00195669-.0141496-.0058622l-.520059-.520071c-.00781102-.00781102-.00781496-.0204606 0-.0282717l.364583-.364579c.0078189-.00782283.0204843-.00782283.0282913 0l.520075.520075c.00781102.00780709.00781496.0204606 0 .0282717l-.364583.364579c-.00390945.00390157-.0090315.00585827-.0141575.00585827zm-.491795-.540067.491795.491795.336303-.336303-.491795-.491795z"/><path d="m.279051 1.34235c.26311.348354-.0703543.457224-.127244.282283-.0191378-.0588504-.00390945-.15063.086622-.273677.0101024-.013752.0277008-.0299094.040622-.0086063zm.0550787.269937c.0151693-.0466457.00179134-.121472-.0721811-.225913-.194969.27524.0344213.342047.0721811.225913z" fill-rule="nonzero"/></g></svg>