<svg enable-background="new 0 0 2048 2048" viewBox="0 0 2048 2048" xmlns="http://www.w3.org/2000/svg"><g id="_x31_4961_-_Uv"><g><g><path d="m1768 1568.692h-1488c-13.255 0-24-10.745-24-24v-545.6c0-13.255 10.745-24 24-24h1488c13.255 0 24 10.745 24 24v545.6c0 13.255-10.745 24-24 24zm-1464-48h1440v-497.6h-1440z" fill="rgb(0,0,0)"/></g><g><path d="m1768 1147.092h-1488c-13.255 0-24-10.745-24-24s10.745-24 24-24h1488c13.255 0 24 10.745 24 24s-10.745 24-24 24z" fill="rgb(0,0,0)"/></g><g><path d="m1437.993 1418.719c-9.072 0-18.146-.215-27.227-.647-51.854-2.468-103.792-11.997-154.374-28.322l-4.571-1.476c-114.037-36.834-351.329-113.477-537.859-1.381-38.396 23.074-86.565 32.188-143.167 27.084-43.365-3.908-91.963-16.171-144.444-36.445-88.164-34.061-156.638-78.678-159.509-80.561-11.085-7.268-14.18-22.145-6.913-33.229s22.138-14.18 33.223-6.918c2.604 1.705 261.967 169.527 396.086 88.927 48.215-28.975 102.491-48.609 161.321-58.358 49.567-8.213 103.596-9.589 160.588-4.086 102.501 9.897 194.529 39.622 255.427 59.291l4.561 1.473c93.412 30.148 191.862 34.709 284.714 13.188 94.115-21.814 158.433-62.796 191.164-121.808 6.429-11.59 21.038-15.774 32.629-9.346s15.775 21.037 9.346 32.629c-21.676 39.079-54.484 71.833-97.517 97.353-34.916 20.707-76.899 36.833-124.784 47.932-42.176 9.775-85.353 14.7-128.694 14.7z" fill="rgb(0,0,0)"/></g><g><path d="m602.4 1271.092h-99.2c-13.255 0-24-10.745-24-24s10.745-24 24-24h99.2c13.255 0 24 10.745 24 24s-10.745 24-24 24z" fill="rgb(0,0,0)"/></g><g><path d="m1024 1469.492h-124c-13.255 0-24-10.745-24-24s10.745-24 24-24h124c13.255 0 24 10.745 24 24s-10.745 24-24 24z" fill="rgb(0,0,0)"/></g><g><path d="m1520 1271.092h-74.4c-13.255 0-24-10.745-24-24s10.745-24 24-24h74.4c13.255 0 24 10.745 24 24s-10.745 24-24 24z" fill="rgb(0,0,0)"/></g><g><path d="m1644 1494.292h-49.6c-13.255 0-24-10.745-24-24s10.745-24 24-24h49.6c13.255 0 24 10.745 24 24s-10.745 24-24 24z" fill="rgb(0,0,0)"/></g><g><g><g><path d="m875.198 1023.092c-5.943 0-11.89-2.193-16.528-6.6l-496-471.2c-9.61-9.129-10-24.32-.87-33.93 9.128-9.61 24.319-10 33.93-.87l479.041 455.088 479.459-479.459c9.373-9.372 24.568-9.372 33.941 0 9.372 9.373 9.372 24.569 0 33.941l-496 496c-4.68 4.68-10.824 7.03-16.973 7.03z" fill="rgb(0,0,0)"/></g><g><path d="m1351.39 651.096c-1.261 0-2.536-.099-3.821-.305-13.088-2.094-22.001-14.402-19.906-27.491l15.393-96.208h-90.895c-13.255 0-24-10.745-24-24s10.745-24 24-24h119.04c7.027 0 13.702 3.08 18.262 8.428 4.561 5.347 6.547 12.425 5.437 19.364l-19.84 124c-1.89 11.804-12.086 20.211-23.67 20.212z" fill="rgb(0,0,0)"/></g></g><g><g><path d="m1172.798 1023.092c-5.943 0-11.89-2.193-16.528-6.6l-496-471.2c-9.61-9.129-10-24.32-.87-33.93 9.129-9.61 24.319-10 33.93-.87l479.041 455.088 479.459-479.459c9.373-9.372 24.568-9.372 33.941 0 9.372 9.373 9.372 24.569 0 33.941l-496 496c-4.68 4.68-10.825 7.03-16.973 7.03z" fill="rgb(0,0,0)"/></g><g><path d="m1648.989 651.096c-1.261 0-2.536-.099-3.821-.305-13.088-2.094-22.001-14.402-19.906-27.491l15.393-96.208h-90.895c-13.255 0-24-10.745-24-24s10.745-24 24-24h119.04c7.027 0 13.702 3.08 18.262 8.428 4.561 5.347 6.547 12.425 5.437 19.364l-19.84 124c-1.889 11.804-12.086 20.211-23.67 20.212z" fill="rgb(0,0,0)"/></g></g></g><g><path d="m1668.822 1023.097c-8.333 0-16.431-4.345-20.86-12.097-56.926-99.621-163.567-161.507-278.306-161.507h-691.312c-114.739 0-221.379 61.886-278.306 161.507-6.577 11.509-21.238 15.505-32.745 8.93-11.509-6.576-15.507-21.236-8.931-32.745 32.195-56.341 78.877-103.337 135.002-135.907 56.124-32.57 120.089-49.786 184.979-49.786h691.312c64.891 0 128.855 17.216 184.979 49.786s102.808 79.566 135.002 135.907c6.576 11.508 2.578 26.169-8.931 32.745-3.754 2.146-7.847 3.166-11.883 3.167z" fill="rgb(0,0,0)"/></g></g></g><g id="Layer_1"/></svg>