<svg id="Capa_1" enable-background="new 0 0 511.979 511.979" height="512" viewBox="0 0 511.979 511.979" width="512" xmlns="http://www.w3.org/2000/svg"><g><path d="m505.399 240.079-56.13-56.13c-7.699-7.7-19.013-8.893-28.151-2.969-9.138 5.925-12.665 16.74-8.776 26.913l6.917 18.096h-28.752c-26.939 0-52.558 10.12-72.07 27.573-.836-21.312-12.622-40.96-31.194-51.706-28.53-16.472-46.254-47.274-46.254-80.385v-39.649c0-2.468-1.214-4.778-3.248-6.178-2.034-1.399-4.625-1.708-6.93-.827l-28.274 10.808c-5.26 2.011-8.196-1.731-8.971-2.925-.774-1.195-2.992-5.402.989-9.384l56.131-56.13c2.924-2.924 7.682-2.924 10.606 0l56.131 56.13c3.981 3.982 1.764 8.189.989 9.384-.774 1.194-3.709 4.938-8.971 2.925l-28.274-10.808c-2.304-.879-4.896-.571-6.93.828-2.033 1.399-3.248 3.709-3.248 6.178v39.624c0 22.438 11.977 43.291 31.251 54.418 16.278 9.418 29.162 23.352 37.258 40.292 1.786 3.738 6.264 5.319 10.001 3.533s5.319-6.264 3.533-10.001c-9.407-19.682-24.373-35.868-43.286-46.812-14.654-8.46-23.757-24.336-23.757-41.432v-28.726l18.096 6.917c10.173 3.889 20.987.362 26.913-8.775 5.925-9.138 4.732-20.451-2.968-28.151l-56.131-56.13c-8.772-8.772-23.047-8.772-31.819 0l-56.131 56.13c-7.701 7.701-8.893 19.014-2.968 28.151 5.924 9.137 16.738 12.665 26.913 8.775l18.096-6.917v28.753c0 10.321 1.497 20.445 4.309 30.111-26.93 6.609-50.43 23.493-65.374 47.259-2.205 3.506-1.15 8.137 2.357 10.341 1.24.78 2.621 1.152 3.985 1.152 2.493 0 4.932-1.243 6.356-3.509 13.166-20.939 34.042-35.665 57.892-41.056 4.55 10.116 10.641 19.491 18.047 27.772-21.312.836-40.96 12.622-51.706 31.194-16.472 28.53-47.273 46.254-80.384 46.254h-39.649c-2.468 0-4.778 1.214-6.178 3.248-1.4 2.033-1.709 4.625-.828 6.93l10.809 28.275c2.011 5.26-1.731 8.196-2.925 8.97-1.195.775-5.401 2.994-9.384-.989l-56.13-56.13c-2.924-2.924-2.924-7.683 0-10.607l56.131-56.13c3.982-3.983 8.189-1.763 9.384-.99 1.194.775 4.936 3.711 2.925 8.971l-10.808 28.274c-.881 2.306-.572 4.897.827 6.931 1.4 2.033 3.71 3.248 6.178 3.248h39.624c11.707 0 23.183-3.259 33.187-9.425 3.526-2.174 4.623-6.794 2.449-10.32-2.173-3.526-6.795-4.623-10.32-2.449-7.636 4.707-16.39 7.195-25.316 7.195h-28.728l6.917-18.096c3.889-10.172.362-20.988-8.775-26.913s-20.451-4.732-28.151 2.969l-56.132 56.128c-8.772 8.773-8.772 23.047 0 31.82l56.131 56.13c4.437 4.437 10.071 6.713 15.799 6.713 4.214 0 8.479-1.232 12.352-3.744 9.138-5.925 12.664-16.74 8.776-26.912l-6.918-18.097h28.753c10.319 0 20.441-1.496 30.105-4.308 6.92 28.342 25.022 52.586 50.655 67.418 14.654 8.46 23.757 24.336 23.757 41.432v28.728l-18.096-6.917c-10.173-3.89-20.988-.362-26.913 8.775s-4.732 20.45 2.969 28.151l56.13 56.13c4.386 4.386 10.148 6.58 15.91 6.58s11.524-2.193 15.91-6.58l56.13-56.13c7.701-7.701 8.894-19.014 2.969-28.151-5.925-9.138-16.741-12.666-26.912-8.775l-18.097 6.917v-4.753c0-4.142-3.358-7.5-7.5-7.5s-7.5 3.358-7.5 7.5v15.649c0 2.468 1.214 4.778 3.248 6.178 2.034 1.399 4.625 1.708 6.93.828l28.275-10.809c5.26-2.013 8.196 1.73 8.971 2.925.774 1.195 2.992 5.402-.99 9.384l-56.13 56.13c-2.924 2.924-7.681 2.925-10.607 0l-56.13-56.13c-3.982-3.982-1.764-8.189-.989-9.384.774-1.194 3.711-4.936 8.971-2.925l28.274 10.808c2.305.881 4.898.572 6.93-.828 2.033-1.399 3.248-3.709 3.248-6.178v-39.624c0-22.438-11.977-43.291-31.25-54.418-22.554-13.05-38.327-34.564-43.971-59.648 10.117-4.55 19.493-10.641 27.774-18.048.836 21.312 12.622 40.959 31.194 51.705 26.943 15.556 44.17 43.5 46.082 74.75.243 3.979 3.545 7.042 7.479 7.042.154 0 .31-.004.465-.014 4.134-.253 7.281-3.809 7.028-7.944-.495-8.086-1.878-15.979-4.068-23.568 28.322-6.93 52.564-25.036 67.379-50.641 8.46-14.654 24.336-23.757 41.432-23.757h28.727l-6.917 18.096c-3.888 10.172-.361 20.987 8.776 26.912 9.137 5.923 20.449 4.732 28.151-2.969l56.13-56.13c8.771-8.772 8.771-23.047-.002-31.82zm-10.606 21.214-56.13 56.13c-3.983 3.983-8.188 1.763-9.384.99-1.195-.775-4.936-3.711-2.926-8.971l10.808-28.274c.881-2.306.572-4.897-.828-6.931-1.399-2.033-3.709-3.248-6.178-3.248h-39.624c-22.438 0-43.291 11.977-54.418 31.25-13.032 22.523-34.535 38.302-59.593 43.96-9.114-20.344-24.421-37.6-44.279-49.065-14.651-8.477-23.752-24.243-23.752-41.146 0-8.343 2.192-16.544 6.337-23.72.005-.009.011-.018.016-.027 8.477-14.651 24.244-23.752 41.146-23.752 8.342 0 16.542 2.191 23.717 6.335.01.006.02.012.031.018 14.651 8.477 23.752 24.243 23.752 41.146 0 8.347-2.194 16.551-6.342 23.729-.004.006-.008.013-.011.019-5.139 8.882-13.155 15.979-22.571 19.985-3.812 1.621-5.587 6.026-3.965 9.837 1.621 3.811 6.025 5.588 9.837 3.965 12.386-5.269 22.927-14.601 29.686-26.282 16.472-28.53 47.274-46.254 80.385-46.254h39.649c2.468 0 4.778-1.214 6.178-3.248 1.399-2.033 1.708-4.625.827-6.931l-10.808-28.274c-2.011-5.26 1.73-8.196 2.925-8.971s5.402-2.992 9.384.989l56.13 56.13c2.925 2.928 2.925 7.686.001 10.611z"/></g></svg>